<svg width="23" height="22" viewBox="0 0 23 22" fill="none" xmlns="http://www.w3.org/2000/svg">
<path d="M17.9975 4.88583C16.7783 4.3175 15.4583 3.905 14.0833 3.66667C14.0713 3.66628 14.0593 3.66854 14.0482 3.6733C14.0371 3.67805 14.0272 3.68517 14.0192 3.69417C13.8542 3.99667 13.6617 4.39083 13.5333 4.69333C12.0749 4.47333 10.5918 4.47333 9.13334 4.69333C9.00501 4.38167 8.81251 3.99667 8.63834 3.69417C8.62917 3.67584 8.60167 3.66667 8.57417 3.66667C7.19917 3.905 5.88834 4.3175 4.66001 4.88583C4.65084 4.88583 4.64167 4.895 4.63251 4.90417C2.13917 8.635 1.45167 12.265 1.79084 15.8583C1.79084 15.8767 1.80001 15.895 1.81834 15.9042C3.46834 17.1142 5.05417 17.8475 6.62167 18.3333C6.64917 18.3425 6.67667 18.3333 6.68584 18.315C7.05251 17.8108 7.38251 17.2792 7.66667 16.72C7.68501 16.6833 7.66667 16.6467 7.63001 16.6375C7.10751 16.4358 6.61251 16.1975 6.12667 15.9225C6.09001 15.9042 6.09001 15.8492 6.11751 15.8217C6.21834 15.7483 6.31917 15.6658 6.42001 15.5925C6.43834 15.5742 6.46584 15.5742 6.48417 15.5833C9.63751 17.0225 13.0383 17.0225 16.155 15.5833C16.1733 15.5742 16.2008 15.5742 16.2192 15.5925C16.32 15.675 16.4208 15.7483 16.5217 15.8308C16.5583 15.8583 16.5583 15.9133 16.5125 15.9317C16.0358 16.2158 15.5317 16.445 15.0092 16.6467C14.9725 16.6558 14.9633 16.7017 14.9725 16.7292C15.2658 17.2883 15.5958 17.82 15.9533 18.3242C15.9808 18.3333 16.0083 18.3425 16.0358 18.3333C17.6125 17.8475 19.1983 17.1142 20.8483 15.9042C20.8667 15.895 20.8758 15.8767 20.8758 15.8583C21.2792 11.7058 20.2067 8.10333 18.0342 4.90417C18.025 4.895 18.0158 4.88583 17.9975 4.88583ZM8.14334 13.6675C7.19917 13.6675 6.41084 12.7967 6.41084 11.7242C6.41084 10.6517 7.18084 9.78084 8.14334 9.78084C9.11501 9.78084 9.885 10.6608 9.87584 11.7242C9.87584 12.7967 9.10584 13.6675 8.14334 13.6675ZM14.5325 13.6675C13.5883 13.6675 12.8 12.7967 12.8 11.7242C12.8 10.6517 13.57 9.78084 14.5325 9.78084C15.5042 9.78084 16.2742 10.6608 16.265 11.7242C16.265 12.7967 15.5042 13.6675 14.5325 13.6675Z" fill="white"/>
</svg>
