<svg  viewBox="0 0 201 18" fill="none" xmlns="http://www.w3.org/2000/svg">
<path d="M11.6433 14.6067L5.53 14.6067L4.55 17.5H0.373333L6.3 1.12L10.92 1.12L16.8467 17.5H12.6233L11.6433 14.6067ZM10.6167 11.5267L8.58667 5.53L6.58 11.5267L10.6167 11.5267ZM26.6771 5.27333C26.7393 3.60889 27.2838 2.32555 28.3104 1.42333C29.3371 0.52111 30.7293 0.0699986 32.4871 0.0699986C33.6538 0.0699986 34.6493 0.272221 35.4738 0.676666C36.3138 1.08111 36.9438 1.63333 37.3638 2.33333C37.7993 3.03333 38.0171 3.81889 38.0171 4.69C38.0171 5.71667 37.7604 6.55667 37.2471 7.21C36.7338 7.84778 36.1349 8.28333 35.4504 8.51667V8.61C36.3371 8.90555 37.0371 9.39555 37.5504 10.08C38.0638 10.7644 38.3204 11.6433 38.3204 12.7167C38.3204 13.6811 38.0949 14.5367 37.6438 15.2833C37.2082 16.0144 36.5627 16.59 35.7071 17.01C34.8671 17.43 33.8638 17.64 32.6971 17.64C30.8304 17.64 29.3371 17.1811 28.2171 16.2633C27.1127 15.3456 26.5293 13.9611 26.4671 12.11H30.3404C30.356 12.7944 30.5504 13.3389 30.9238 13.7433C31.2971 14.1322 31.8416 14.3267 32.5571 14.3267C33.1638 14.3267 33.6304 14.1556 33.9571 13.8133C34.2993 13.4556 34.4704 12.9889 34.4704 12.4133C34.4704 11.6667 34.2293 11.13 33.7471 10.8033C33.2804 10.4611 32.526 10.29 31.4838 10.29H30.7371L30.7371 7.04667L31.4838 7.04667C32.2771 7.04667 32.9149 6.91444 33.3971 6.65C33.8949 6.37 34.1438 5.88 34.1438 5.18C34.1438 4.62 33.9882 4.18444 33.6771 3.87333C33.366 3.56222 32.9382 3.40667 32.3938 3.40667C31.8027 3.40667 31.3593 3.58555 31.0638 3.94333C30.7838 4.30111 30.6204 4.74444 30.5738 5.27333H26.6771ZM63.7044 9.33333C63.7044 7.73111 64.0544 6.3 64.7544 5.04C65.4544 3.76444 66.411 2.77667 67.6244 2.07667C68.8377 1.36111 70.191 1.00333 71.6844 1.00333C73.5044 1.00333 75.0599 1.43889 76.351 2.31C77.6577 3.16555 78.6066 4.37889 79.1977 5.95H77.2844C76.8177 4.84555 76.1022 3.98222 75.1377 3.36C74.1888 2.73778 73.0377 2.42667 71.6844 2.42667C70.4866 2.42667 69.4055 2.70667 68.441 3.26667C67.4922 3.82667 66.7455 4.63555 66.201 5.69333C65.6566 6.73555 65.3844 7.94889 65.3844 9.33333C65.3844 10.7178 65.6566 11.9311 66.201 12.9733C66.7455 14.0156 67.4922 14.8167 68.441 15.3767C69.4055 15.9367 70.4866 16.2167 71.6844 16.2167C73.0377 16.2167 74.1888 15.9133 75.1377 15.3067C76.1022 14.6844 76.8177 13.8289 77.2844 12.74H79.1977C78.6066 14.2956 77.6577 15.5011 76.351 16.3567C75.0444 17.2122 73.4888 17.64 71.6844 17.64C70.191 17.64 68.8377 17.29 67.6244 16.59C66.411 15.8744 65.4544 14.8867 64.7544 13.6267C64.0544 12.3667 63.7044 10.9356 63.7044 9.33333ZM100.186 13.6267H92.7657L91.3424 17.5L89.6157 17.5L95.5657 1.4H97.409L103.336 17.5H101.609L100.186 13.6267ZM99.6957 12.2733L96.4757 3.45333L93.2557 12.2733H99.6957ZM124.67 5.88C124.67 7.28 124.211 8.40778 123.294 9.26333C122.376 10.1189 120.999 10.5467 119.164 10.5467L115.874 10.5467V17.5H114.24V1.19H119.164C120.984 1.19 122.353 1.61778 123.27 2.47333C124.204 3.32889 124.67 4.46444 124.67 5.88ZM119.164 9.14667C121.715 9.14667 122.99 8.05778 122.99 5.88C122.99 4.79111 122.687 3.96667 122.08 3.40667C121.474 2.84667 120.501 2.56667 119.164 2.56667H115.874V9.14667L119.164 9.14667ZM137.328 1.19V17.5H135.694V1.19H137.328ZM158.853 1.19V2.54333L154.326 2.54333V17.5H152.693V2.54333L148.143 2.54333V1.19L158.853 1.19ZM179.165 13.6267L171.745 13.6267L170.322 17.5H168.595L174.545 1.4L176.389 1.4L182.315 17.5H180.589L179.165 13.6267ZM178.675 12.2733L175.455 3.45333L172.235 12.2733L178.675 12.2733ZM194.853 16.17L200.71 16.17V17.5L193.22 17.5V1.19H194.853V16.17Z" fill="black"/>
</svg>
