<svg width="23" height="22" viewBox="0 0 23 22" fill="none" xmlns="http://www.w3.org/2000/svg">
<path d="M11.3334 1.83337C6.27335 1.83337 2.16669 5.94004 2.16669 11C2.16669 16.06 6.27335 20.1667 11.3334 20.1667C16.3934 20.1667 20.5 16.06 20.5 11C20.5 5.94004 16.3934 1.83337 11.3334 1.83337ZM15.5867 8.06671C15.4492 9.51504 14.8534 13.035 14.5509 14.6575C14.4225 15.345 14.1659 15.5742 13.9275 15.6017C13.3959 15.6475 12.9925 15.2534 12.4792 14.9142C11.6725 14.3825 11.2142 14.0525 10.435 13.5392C9.52752 12.9434 10.1142 12.6134 10.6367 12.0817C10.7742 11.9442 13.1209 9.80837 13.1667 9.61587C13.1731 9.58672 13.1722 9.55645 13.1642 9.52769C13.1562 9.49894 13.1413 9.47257 13.1209 9.45087C13.0659 9.40504 12.9925 9.42337 12.9284 9.43254C12.8459 9.45087 11.5625 10.3034 9.06002 11.99C8.69335 12.2375 8.36335 12.3659 8.07002 12.3567C7.74002 12.3475 7.11669 12.1734 6.64919 12.0175C6.07169 11.8342 5.62252 11.7334 5.65919 11.4125C5.67752 11.2475 5.90669 11.0825 6.33752 10.9084C9.01419 9.74421 10.7925 8.97421 11.6817 8.60754C14.23 7.54421 14.7525 7.36087 15.1009 7.36087C15.1742 7.36087 15.3484 7.37921 15.4584 7.47087C15.55 7.54421 15.5775 7.64504 15.5867 7.71837C15.5775 7.77337 15.5959 7.93837 15.5867 8.06671Z" fill="white"/>
</svg>
