<svg width="23" height="22" viewBox="0 0 23 22" fill="none" xmlns="http://www.w3.org/2000/svg">
<g clip-path="url(#clip0_208_3814)">
<path d="M9.40834 0H8.17084L7.34584 3.1625L6.52084 0H5.14584C5.42084 0.825 5.69584 1.5125 5.97084 2.3375C6.38334 3.4375 6.65834 4.4 6.65834 4.95V8.25H7.89584V4.95L9.40834 0ZM12.7083 6.1875V4.125C12.7083 3.4375 12.5708 3.025 12.2958 2.6125C12.0208 2.2 11.6083 2.0625 11.0583 2.0625C10.5083 2.0625 10.0958 2.3375 9.82084 2.75C9.54584 3.025 9.40834 3.4375 9.40834 4.125V6.325C9.40834 7.0125 9.54584 7.425 9.82084 7.7C10.0958 8.1125 10.5083 8.25 11.0583 8.25C11.6083 8.25 12.0208 7.975 12.2958 7.5625C12.5708 7.425 12.7083 6.875 12.7083 6.1875ZM11.6083 6.4625C11.6083 7.0125 11.4708 7.2875 11.0583 7.2875C10.6458 7.2875 10.5083 7.0125 10.5083 6.4625V3.85C10.5083 3.3 10.6458 3.025 11.0583 3.025C11.4708 3.025 11.6083 3.3 11.6083 3.85V6.4625ZM16.8333 8.25V2.0625H15.7333V6.7375C15.4583 7.15 15.3208 7.2875 15.0458 7.2875C14.9083 7.2875 14.7708 7.15 14.7708 7.0125V2.0625H13.6708V6.875C13.6708 7.2875 13.6708 7.5625 13.8083 7.8375C13.8083 8.1125 14.0833 8.25 14.4958 8.25C14.9083 8.25 15.3208 7.975 15.7333 7.5625V8.25H16.8333ZM17.3833 14.4375C16.9708 14.4375 16.8333 14.7125 16.8333 15.2625V15.8125H17.9333V15.2625C17.9333 14.7125 17.7958 14.4375 17.3833 14.4375ZM13.3958 14.4375C13.2583 14.4375 12.9833 14.575 12.8458 14.7125V18.425C12.9833 18.5625 13.2583 18.7 13.3958 18.7C13.6708 18.7 13.8083 18.425 13.8083 17.875V15.2625C13.8083 14.7125 13.6708 14.4375 13.3958 14.4375Z" fill="white"/>
<path d="M20.1333 11.4125C19.8583 10.45 19.0333 9.62498 18.2083 9.62498C16.0083 9.34998 13.6708 9.34998 11.3333 9.34998C8.99583 9.34998 6.79583 9.34998 4.45833 9.62498C3.63333 9.62498 2.80833 10.45 2.53333 11.4125C2.25833 12.7875 2.25833 14.3 2.25833 15.675C2.25833 17.05 2.25833 18.5625 2.53333 19.9375C2.80833 20.9 3.49583 21.5875 4.45833 21.725C6.79583 22 8.99583 22 11.3333 22C13.6708 22 15.8708 22 18.2083 21.725C19.1708 21.5875 19.9958 20.9 20.1333 19.9375C20.4083 18.5625 20.4083 17.05 20.4083 15.675C20.4083 14.3 20.4083 12.7875 20.1333 11.4125ZM7.48333 12.65H6.10833V19.6625H4.87083V12.65H3.63333V11.4125H7.48333V12.65ZM10.7833 19.6625H9.68333V18.975C9.27083 19.525 8.85833 19.6625 8.44583 19.6625C8.03333 19.6625 7.89583 19.525 7.75833 19.25C7.75833 19.1125 7.62083 18.8375 7.62083 18.2875V13.475H8.72083V18.2875C8.72083 18.425 8.85833 18.5625 8.99583 18.5625C9.27083 18.5625 9.40833 18.425 9.68333 18.0125V13.475H10.7833V19.6625ZM14.9083 17.7375C14.9083 18.2875 14.9083 18.7 14.7708 18.975C14.6333 19.3875 14.3583 19.6625 13.9458 19.6625C13.5333 19.6625 13.1208 19.3875 12.8458 18.975V19.525H11.7458V11.4125H12.8458V14.025C13.2583 13.6125 13.5333 13.3375 13.9458 13.3375C14.3583 13.3375 14.6333 13.6125 14.7708 14.025C14.9083 14.3 14.9083 14.7125 14.9083 15.2625V17.7375ZM19.0333 16.775H16.8333V17.875C16.8333 18.425 16.9708 18.7 17.3833 18.7C17.6583 18.7 17.7958 18.5625 17.9333 18.2875V17.6H19.0333V18.425C19.0333 18.7 18.8958 18.8375 18.7583 19.1125C18.4833 19.525 18.0708 19.8 17.3833 19.8C16.8333 19.8 16.4208 19.525 16.0083 19.1125C15.7333 18.8375 15.5958 18.2875 15.5958 17.7375V15.675C15.5958 14.9875 15.7333 14.575 15.8708 14.3C16.1458 13.8875 16.5583 13.6125 17.2458 13.6125C17.7958 13.6125 18.2083 13.8875 18.4833 14.3C18.7583 14.575 18.7583 15.125 18.7583 15.675V16.775H19.0333Z" fill="white"/>
</g>
<defs>
<clipPath id="clip0_208_3814">
<rect width="22" height="22" fill="white" transform="translate(0.333344)"/>
</clipPath>
</defs>
</svg>
